<?xml version="1.0" encoding="iso-8859-1"?>
<!-- Uploaded to: SVG Repo, www.svgrepo.com, Generator: SVG Repo Mixer Tools -->
<svg version="1.1" id="Layer_1" xmlns="http://www.w3.org/2000/svg" xmlns:xlink="http://www.w3.org/1999/xlink" 
	viewBox="0 0 512 512" xml:space="preserve">
<g>
	<g>
		<path d="M272.512,256L393.625,14.776c1.587-3.162,1.424-6.92-0.435-9.931S388.048,0,384.51,0H250.9
			c-3.857,0-7.384,2.177-9.115,5.622l-123.41,245.801c-1.446,2.88-1.446,6.275,0,9.154l123.41,245.801
			c1.731,3.446,5.258,5.623,9.115,5.623h133.61c3.538,0,6.821-1.834,8.68-4.845s2.023-6.768,0.434-9.931L272.512,256z
			M257.192,491.602L138.902,256l118.29-235.602h110.785L251.986,251.423c-1.446,2.88-1.446,6.275,0,9.154l115.991,231.025H257.192z
			"/>
	</g>
</g>
<g>
	<g>
		<path d="M258.997,415.967l-3.241-6.456c-2.528-5.032-8.655-7.068-13.691-4.54c-5.033,2.528-7.067,8.657-4.54,13.691l3.241,6.456
			c1.791,3.566,5.387,5.626,9.123,5.626c1.538,0,3.1-0.349,4.568-1.086C259.49,427.13,261.524,421.002,258.997,415.967z"/>
	</g>
</g>
<g>
	<g>
		<path d="M239.367,376.872l-62.985-125.449c-2.526-5.033-8.653-7.067-13.691-4.538c-5.033,2.527-7.066,8.657-4.538,13.691
			l62.985,125.449c1.79,3.566,5.387,5.625,9.122,5.625c1.538,0,3.1-0.35,4.569-1.087
			C239.863,388.036,241.896,381.906,239.367,376.872z"/>
	</g>
</g>
</svg>