<?xml version="1.0" encoding="iso-8859-1"?>
<!-- Uploaded to: SVG Repo, www.svgrepo.com, Generator: SVG Repo Mixer Tools -->
<svg version="1.1" id="Layer_1" xmlns="http://www.w3.org/2000/svg" xmlns:xlink="http://www.w3.org/1999/xlink" 
	 viewBox="0 0 512 512" xml:space="preserve">
<g>
	<g>
		<path d="M393.625,251.424L270.215,5.623C268.484,2.177,264.957,0,261.1,0H127.49c-3.538,0-6.823,1.834-8.681,4.845
			s-2.021,6.768-0.435,9.931L239.488,256L118.375,497.224c-1.587,3.162-1.424,6.92,0.435,9.931S123.952,512,127.49,512H261.1
			c3.857,0,7.384-2.177,9.115-5.622l123.41-245.801C395.07,257.697,395.07,254.303,393.625,251.424z M254.808,491.602H144.023
			l115.992-231.024c1.445-2.88,1.445-6.275,0-9.154L144.023,20.398h110.785L373.097,256L254.808,491.602z"/>
	</g>
</g>
<g>
	<g>
		<path d="M274.476,93.334l-3.241-6.456c-2.527-5.033-8.658-7.063-13.691-4.538c-5.034,2.527-7.066,8.657-4.539,13.691l3.241,6.456
			c1.791,3.566,5.388,5.625,9.123,5.625c1.538,0,3.101-0.35,4.568-1.087C274.972,104.498,277.003,98.368,274.476,93.334z"/>
	</g>
</g>
<g>
	<g>
		<path d="M353.848,251.423l-62.985-125.45c-2.527-5.034-8.658-7.064-13.691-4.538c-5.034,2.527-7.066,8.656-4.539,13.691
			l62.985,125.45c1.791,3.566,5.388,5.625,9.123,5.625c1.538,0,3.1-0.35,4.568-1.087
			C354.344,262.587,356.376,256.458,353.848,251.423z"/>
	</g>
</g>
</svg>