<svg width="350.977" height="173.633" viewBox="0 0 350.977 173.633" xmlns="http://www.w3.org/2000/svg"><g id="svgGroup" stroke-linecap="round" fill-rule="evenodd" font-size="9pt" stroke="#000" stroke-width="0.5mm" fill="none" style="stroke:#000;stroke-width:0.5mm;fill:none"><path d="M 228.125 0 L 228.516 0.195 Q 235.157 1.953 241.309 4.883 A 44.588 44.588 0 0 1 250.339 10.546 A 40.825 40.825 0 0 1 252.149 12.109 Q 256.836 16.406 259.571 22.168 A 27.718 27.718 0 0 1 261.854 29.664 A 36.808 36.808 0 0 1 262.305 35.547 A 42.669 42.669 0 0 1 260.382 48.016 A 51.546 51.546 0 0 1 258.887 52.246 A 105.216 105.216 0 0 1 250.391 68.848 A 145.07 145.07 0 0 1 239.258 84.277 A 343.243 343.243 0 0 1 233.399 91.187 A 252.386 252.386 0 0 1 227.93 97.266 A 744.119 744.119 0 0 1 211.035 115.137 A 445.67 445.67 0 0 0 194.336 133.203 Q 188.477 140.039 183.008 146.973 A 262.793 262.793 0 0 0 172.461 161.328 A 158.844 158.844 0 0 0 169.043 166.895 A 158.844 158.844 0 0 1 165.625 172.461 A 3.2 3.2 0 0 1 165.099 173.079 A 2.081 2.081 0 0 1 163.672 173.633 A 1.837 1.837 0 0 1 163.179 173.556 Q 162.479 173.358 161.426 172.656 A 7.378 7.378 0 0 1 160.855 172.238 Q 160.309 171.793 160.097 171.392 A 1.053 1.053 0 0 1 159.961 170.898 A 14.154 14.154 0 0 1 160.114 168.869 A 17.571 17.571 0 0 1 160.352 167.578 A 141.209 141.209 0 0 1 160.742 165.869 A 119.457 119.457 0 0 1 161.133 164.258 A 194.031 194.031 0 0 1 166.114 143.652 A 289.023 289.023 0 0 0 171.485 123.047 A 1003.25 1003.25 0 0 0 175.586 103.906 A 315.29 315.29 0 0 0 178.907 84.57 Q 179.297 81.445 179.688 78.223 Q 180.078 75 180.469 71.68 A 12.874 12.874 0 0 0 180.599 69.857 A 12.789 12.789 0 0 0 180.567 68.945 Q 180.469 67.578 180.86 66.211 A 2.376 2.376 0 0 1 181.878 64.687 A 3.119 3.119 0 0 1 181.934 64.648 A 3.499 3.499 0 0 1 182.983 64.167 A 3.144 3.144 0 0 1 183.789 64.063 A 3.24 3.24 0 0 1 185.465 64.535 A 3.981 3.981 0 0 1 185.645 64.648 A 2.603 2.603 0 0 1 186.327 65.296 A 2.339 2.339 0 0 1 186.719 66.211 A 23.384 23.384 0 0 1 187.021 69.382 Q 187.032 69.762 187.032 70.148 A 28.18 28.18 0 0 1 187.012 71.191 A 144.176 144.176 0 0 0 186.928 74.373 A 120.594 120.594 0 0 0 186.914 76.172 A 187.021 187.021 0 0 1 184.571 105.957 A 470.632 470.632 0 0 1 178.907 135.156 A 168.131 168.131 0 0 1 187.207 125.195 Q 191.602 120.313 196.094 115.625 A 410.105 410.105 0 0 1 200.324 111.28 Q 203.235 108.331 206.641 104.98 A 457.553 457.553 0 0 0 215.546 95.963 A 531.634 531.634 0 0 0 219.141 92.188 A 455.468 455.468 0 0 0 231.934 78.027 A 147.189 147.189 0 0 0 241.672 65.529 A 132.44 132.44 0 0 0 243.262 63.184 A 94.263 94.263 0 0 0 248.717 53.875 A 77.694 77.694 0 0 0 251.27 48.34 A 41.339 41.339 0 0 0 253.632 40.696 A 33.033 33.033 0 0 0 254.297 34.18 A 23.141 23.141 0 0 0 249.61 19.922 Q 246.289 15.43 241.407 12.5 A 79.743 79.743 0 0 0 231.446 7.422 A 18.406 18.406 0 0 0 230.658 7.129 Q 230.22 6.976 229.721 6.824 A 34.285 34.285 0 0 0 229.102 6.641 A 11.681 11.681 0 0 1 227.906 6.231 Q 227.277 5.975 226.758 5.664 A 4.557 4.557 0 0 1 226.007 5.088 Q 225.196 4.306 225.196 3.32 A 2.595 2.595 0 0 1 225.352 2.462 Q 225.476 2.108 225.698 1.732 A 6.168 6.168 0 0 1 226.075 1.172 A 3.621 3.621 0 0 1 226.652 0.554 A 2.253 2.253 0 0 1 228.125 0 Z M 191.992 13.672 Q 184.766 32.813 174.219 49.902 A 836.043 836.043 0 0 1 152.149 83.789 Q 142.188 98.438 131.446 112.305 Q 120.703 126.172 109.18 139.648 A 539.849 539.849 0 0 1 101.27 148.926 Q 97.266 153.516 92.969 158.008 A 1.893 1.893 0 0 1 91.765 158.739 A 2.931 2.931 0 0 1 91.211 158.789 A 2.773 2.773 0 0 1 89.595 158.262 A 3.955 3.955 0 0 1 89.063 157.813 A 3.736 3.736 0 0 1 88.468 157.053 A 2.72 2.72 0 0 1 88.086 155.664 A 3.879 3.879 0 0 1 88.111 155.212 Q 88.17 154.712 88.371 154.424 A 0.947 0.947 0 0 1 88.477 154.297 A 532.818 532.818 0 0 1 97.657 142.285 A 351.168 351.168 0 0 0 106.836 130.078 A 1231.46 1231.46 0 0 0 125.782 104.395 A 928.275 928.275 0 0 0 143.946 78.125 A 509.055 509.055 0 0 0 158.203 55.469 A 1331.556 1331.556 0 0 1 172.071 32.617 A 338.897 338.897 0 0 1 179.004 21.68 Q 182.617 16.211 186.524 11.328 A 4.403 4.403 0 0 1 187.119 10.824 Q 187.474 10.577 187.83 10.459 A 2.047 2.047 0 0 1 188.477 10.352 Q 190.039 10.352 190.918 11.328 A 4.334 4.334 0 0 1 191.992 13.667 A 5.589 5.589 0 0 1 191.992 13.672 Z M 38.672 135.156 L 38.282 135.156 Q 26.953 130.664 17.09 122.656 A 77.372 77.372 0 0 1 0.586 104.297 A 19.263 19.263 0 0 1 0 99.609 Q 0 95.508 1.563 92.188 A 26.223 26.223 0 0 1 4.264 87.716 A 31.854 31.854 0 0 1 5.86 85.742 A 99.225 99.225 0 0 1 10.352 81.152 A 299.345 299.345 0 0 0 14.304 77.296 A 270.714 270.714 0 0 0 14.844 76.758 A 43.574 43.574 0 0 1 15.546 76.074 Q 16.773 74.902 19.043 72.852 A 112.333 112.333 0 0 1 23.859 68.75 A 128.106 128.106 0 0 1 25.586 67.383 Q 29.102 64.648 32.325 62.207 Q 35.547 59.766 36.914 59.18 L 37.696 58.984 A 2.698 2.698 0 0 1 39.048 59.361 Q 39.503 59.62 39.942 60.059 A 4.483 4.483 0 0 1 40.531 60.774 Q 40.857 61.273 40.964 61.793 A 2.532 2.532 0 0 1 41.016 62.305 A 1.962 1.962 0 0 1 40.85 63.122 Q 40.656 63.551 40.235 63.867 A 65.146 65.146 0 0 1 37.5 66.452 A 59.341 59.341 0 0 1 37.11 66.797 A 63.64 63.64 0 0 0 34.375 69.339 A 69.881 69.881 0 0 0 33.985 69.727 L 27.442 76.27 Q 24.219 79.492 21.094 82.813 A 51.954 51.954 0 0 0 20.459 83.459 Q 19.754 84.19 18.842 85.179 A 183.045 183.045 0 0 0 17.969 86.133 A 86.391 86.391 0 0 0 14.16 90.625 A 41.919 41.919 0 0 0 11.745 93.994 A 36.292 36.292 0 0 0 10.938 95.313 A 13.479 13.479 0 0 0 10.217 96.72 Q 9.571 98.206 9.571 99.414 Q 9.571 100.684 11.678 103.05 A 25.721 25.721 0 0 0 12.012 103.418 Q 14.11 105.684 17.002 108.31 A 120.581 120.581 0 0 0 17.969 109.18 A 166.544 166.544 0 0 0 21.68 112.378 A 209.992 209.992 0 0 0 25.782 115.723 A 209.992 209.992 0 0 1 29.883 119.067 A 166.544 166.544 0 0 1 33.594 122.266 Q 36.286 124.658 38.348 126.65 A 97.682 97.682 0 0 1 39.551 127.832 Q 41.992 130.273 41.992 131.445 A 3.756 3.756 0 0 1 41.323 133.576 A 4.923 4.923 0 0 1 41.016 133.984 A 3.57 3.57 0 0 1 40.229 134.698 A 2.789 2.789 0 0 1 38.672 135.156 Z M 312.11 134.18 L 311.719 134.375 A 2.319 2.319 0 0 1 310.537 134.037 Q 310.18 133.829 309.833 133.493 A 5.397 5.397 0 0 1 309.473 133.105 A 5.859 5.859 0 0 1 308.895 132.302 Q 308.624 131.842 308.501 131.395 A 2.746 2.746 0 0 1 308.399 130.664 A 1.353 1.353 0 0 1 308.533 130.131 Q 308.971 129.138 310.84 127.344 A 81.977 81.977 0 0 1 313.477 124.927 A 111.831 111.831 0 0 1 316.504 122.363 Q 319.727 119.727 322.754 117.48 Q 325.227 115.646 326.332 114.788 A 37.62 37.62 0 0 0 326.758 114.453 A 97.67 97.67 0 0 0 330.553 111.501 Q 332.457 109.948 334.494 108.151 A 157.252 157.252 0 0 0 334.766 107.91 Q 338.843 104.297 341.161 100.596 A 24.439 24.439 0 0 0 341.407 100.195 Q 341.565 100.037 341.595 99.621 A 2.898 2.898 0 0 0 341.602 99.414 Q 341.602 97.997 340.477 95.936 A 17.428 17.428 0 0 0 340.235 95.508 Q 338.867 93.164 336.914 90.82 Q 334.961 88.477 333.008 86.328 Q 331.055 84.18 329.883 83.008 Q 326.563 79.688 323.34 76.563 A 189.527 189.527 0 0 0 316.797 70.508 A 35.597 35.597 0 0 0 313.477 67.578 A 35.597 35.597 0 0 1 310.157 64.648 A 4.401 4.401 0 0 1 310.144 64.636 Q 309.62 64.107 309.453 63.579 A 1.63 1.63 0 0 1 309.375 63.086 A 2.497 2.497 0 0 1 309.736 61.816 Q 309.951 61.447 310.294 61.088 A 5.368 5.368 0 0 1 310.547 60.84 A 5.117 5.117 0 0 1 311.316 60.251 Q 311.793 59.957 312.27 59.841 A 2.623 2.623 0 0 1 312.891 59.766 L 313.086 59.766 A 0.587 0.587 0 0 1 313.151 59.769 Q 313.282 59.784 313.282 59.863 A 0.078 0.078 0 0 0 313.33 59.936 Q 313.378 59.961 313.477 59.961 A 27.392 27.392 0 0 1 314.268 60.434 Q 315.335 61.093 317.052 62.24 A 228.73 228.73 0 0 1 318.164 62.988 A 121.693 121.693 0 0 1 322.822 66.307 A 142.407 142.407 0 0 1 325 67.969 A 430.544 430.544 0 0 1 328.418 70.654 A 370.116 370.116 0 0 1 331.641 73.242 A 150.829 150.829 0 0 1 333.081 74.426 Q 334.85 75.9 335.74 76.759 A 15.605 15.605 0 0 1 335.938 76.953 A 147.86 147.86 0 0 0 339.325 80.231 A 168.531 168.531 0 0 0 340.528 81.348 A 76.295 76.295 0 0 1 345.117 85.938 A 24.107 24.107 0 0 1 348.897 91.229 A 22.351 22.351 0 0 1 349.414 92.285 A 17.453 17.453 0 0 1 350.935 98.477 A 20.698 20.698 0 0 1 350.977 99.805 A 25.611 25.611 0 0 1 350.922 101.508 A 22.619 22.619 0 0 1 350.879 102.051 A 29.342 29.342 0 0 1 350.68 103.699 A 33.899 33.899 0 0 1 350.586 104.297 Q 343.75 114.844 333.887 122.559 Q 324.024 130.273 312.11 134.18 Z" vector-effect="non-scaling-stroke"/></g></svg>